PathFileType	4	(X/Y/Z)	E:\Marcel_BSc\Ayumi_22_01_2025\22-01-2025\sumo_dl_3.trc
DataRate	CameraRate	NumFrames	NumMarkers	Units	OrigDataRate	OrigDataStartFrame	OrigNumFrames
200.0	200.0	6	47	mm	200.0	1169	2336	
Frame#	Time	FHD			LBHD			RBHD			RBAR			LBAR			RSACR			LSACR			USACR			C7			CLAV			T10			RSHO			LSHO			LTHI1			LTHI3			LTHI2			LTIB1			LTIB2			LTIB3			LMMAL			LLMAL			LHEE			LMT1			LMT5			LMT3			RTHI1			RTHI2			RTHI3			RTIB1			RTIB3			RTIB2			RLMAL			RMMAL			RHEE			RMT5			RMT1			RMT3			LDUPA			LMUPA			LUUPA			LRAD			RUL			RUFIN			RRAD			RMUPA			RDUPA			RUUPA			
		X1	Y1	Z1	X2	Y2	Z2	X3	Y3	Z3	X4	Y4	Z4	X5	Y5	Z5	X6	Y6	Z6	X7	Y7	Z7	X8	Y8	Z8	X9	Y9	Z9	X10	Y10	Z10	X11	Y11	Z11	X12	Y12	Z12	X13	Y13	Z13	X14	Y14	Z14	X15	Y15	Z15	X16	Y16	Z16	X17	Y17	Z17	X18	Y18	Z18	X19	Y19	Z19	X20	Y20	Z20	X21	Y21	Z21	X22	Y22	Z22	X23	Y23	Z23	X24	Y24	Z24	X25	Y25	Z25	X26	Y26	Z26	X27	Y27	Z27	X28	Y28	Z28	X29	Y29	Z29	X30	Y30	Z30	X31	Y31	Z31	X32	Y32	Z32	X33	Y33	Z33	X34	Y34	Z34	X35	Y35	Z35	X36	Y36	Z36	X37	Y37	Z37	X38	Y38	Z38	X39	Y39	Z39	X40	Y40	Z40	X41	Y41	Z41	X42	Y42	Z42	X43	Y43	Z43	X44	Y44	Z44	X45	Y45	Z45	X46	Y46	Z46	X47	Y47	Z47	
1169	5.835	183.86819	1503.0347	-993.60016	202.31284	1486.8955	-933.42188	228.1675	1476.6504	-1063.8982	222.72742	633.40448	-2089.4717	254.06396	625.58954	131.21649	446.32468	854.35217	-1031.5845	448.17087	856.05939	-958.91809	443.93982	868.81812	-994.07904	391.6572	1300.6313	-991.23743	252.02217	1225.733	-990.26642	440.20212	1033.5104	-999.37659	268.84155	1236.5112	-1158.8373	305.0415	1232.6039	-814.80707	368.5412	574.4873	-748.07355	372.23904	509.39948	-740.41602	332.22391	527.93231	-715.42493	336.50635	239.65939	-589.20184	376.38361	219.06447	-612.32922	344.05453	175.44055	-575.28564	280.21768	65.40303	-590.28815	334.37149	68.707466	-542.56378	343.35678	28.933723	-589.17297	182.75351	44.799915	-475.34006	245.13644	25.720383	-425.03754	200.7988	40.335609	-445.44778	378.75427	570.81396	-1228.6825	345.32584	524.13214	-1260.8346	387.67474	506.78189	-1238.1591	365.29208	269.55231	-1371.9946	370.49246	206.86334	-1385.4647	403.1651	247.53401	-1347.8197	353.55069	68.196892	-1432.4617	283.98419	68.241486	-1401.1334	353.74976	28.887527	-1384.5189	274.33429	26.207121	-1558.2549	214.18318	37.581612	-1526.4453	236.78662	34.599964	-1547.8475	379.76465	1014.1055	-763.96405	330.99664	1025.1055	-762.31952	343.86407	1085.4778	-765.63361	276.88507	702.98511	-714.83752	206.70732	714.82251	-1263.1196	189.88193	633.92584	-1200.2203	205.03148	709.38196	-1200.0914	305.69269	1108.776	-1221.021	296.26196	1048.3447	-1235.1002	354.46805	1101.2053	-1220.0504
1170	5.84	185.08217	1502.7592	-994.0896	203.50346	1486.6976	-933.81323	229.76894	1476.0507	-1064.3845	222.08797	633.245	-2089.438	253.4245	625.35291	131.05739	446.42029	853.83435	-1031.759	448.31506	855.50983	-959.0412	444.12683	868.19037	-994.26697	393.37283	1300.4039	-991.2373	253.53528	1225.7731	-990.11786	441.05927	1033.0099	-999.44525	270.16098	1236.3188	-1158.6555	306.83652	1232.3088	-814.70361	367.94302	574.40167	-748.14343	371.67239	509.13721	-740.39008	331.55435	527.82379	-715.48462	336.19968	239.73155	-589.31348	375.96982	219.10045	-612.51184	343.8389	175.44524	-575.41315	280.13248	65.315544	-590.37152	334.25055	68.742134	-542.66931	343.28384	28.965584	-589.21454	182.71275	44.788429	-475.33517	245.10803	25.668472	-425.05542	200.73798	40.349609	-445.43683	378.50668	570.42938	-1228.8524	344.67892	524.04565	-1260.8704	387.10223	506.65228	-1238.2347	364.21964	269.09976	-1371.6431	369.98312	206.84482	-1385.5165	402.51202	247.63544	-1347.8571	353.40945	68.194092	-1432.3116	283.80597	68.174606	-1401.059	353.67822	28.969553	-1384.4447	274.28781	26.228916	-1558.2698	214.11356	37.570454	-1526.4567	236.66898	34.509876	-1547.8573	381.06003	1013.4999	-764.30182	332.24411	1024.6249	-762.43176	345.30148	1085.1134	-765.71198	277.91138	702.36835	-715.49762	206.43329	715.22351	-1263.2039	189.27663	634.06671	-1200.433	204.7345	709.4389	-1200.7502	306.72754	1108.1692	-1221.8184	297.24103	1048.1298	-1234.953	355.19232	1100.1302	-1219.762
1171	5.845	186.45578	1502.4703	-994.50653	204.83916	1486.3605	-934.16345	231.23094	1475.6315	-1064.7516	221.68658	632.72461	-2089.3687	252.82597	625.05609	130.83936	446.44022	853.33118	-1031.9744	448.40073	854.92175	-959.24115	444.36978	867.57922	-994.44379	394.98975	1300.2423	-991.17853	254.99478	1225.8702	-989.93036	441.9136	1032.3866	-999.52728	271.43045	1236.2198	-1158.4445	308.38818	1232.0154	-814.63184	367.50864	574.3067	-748.24011	371.34183	508.10461	-740.57361	330.92197	527.82562	-715.52954	335.85049	239.72095	-589.49115	375.62219	219.19109	-612.70227	343.60635	175.50891	-575.53156	280.02765	65.214333	-590.48486	334.10818	68.772163	-542.77026	343.21094	28.980707	-589.26062	182.64696	44.774147	-475.33951	245.10051	25.662291	-425.0657	200.66351	40.350143	-445.42075	377.96054	570.37189	-1228.8829	343.98611	523.96008	-1260.9404	386.41446	506.6138	-1238.2267	363.7049	268.94583	-1371.6345	369.44727	206.87987	-1385.4573	402.08865	247.74974	-1347.8469	353.20193	68.171959	-1432.1283	283.65939	68.073105	-1400.9613	353.61124	29.036709	-1384.3784	274.23474	26.248007	-1558.2676	214.04901	37.527744	-1526.462	236.59457	34.426895	-1547.8826	382.16562	1012.9541	-764.62488	333.45718	1024.2581	-762.48291	346.32321	1084.8239	-765.85242	278.6763	701.98163	-715.79889	205.98509	715.4682	-1263.302	188.69498	634.28101	-1200.5939	204.42834	709.48987	-1200.9031	307.85855	1108.0282	-1221.3157	298.08139	1047.9213	-1234.7844	356.13919	1099.8192	-1219.6307
1172	5.85	187.83946	1502.0806	-994.95233	205.98068	1486.2495	-934.63873	232.71547	1475.3137	-1065.0233	221.52901	633.12665	-2089.6177	252.20152	624.70441	130.59015	446.49194	852.66858	-1032.219	448.54034	853.77484	-959.6546	444.43069	867.02234	-994.67578	396.63507	1299.9497	-991.15723	256.38901	1225.9135	-989.76294	442.63513	1031.899	-999.53455	272.61545	1236.1	-1158.2969	309.81216	1231.7205	-814.58148	366.96017	574.24457	-748.45618	370.57428	509.0235	-740.72241	330.41	527.84863	-715.6051	335.64944	239.8588	-589.57697	375.367	219.20328	-612.89111	343.34637	175.53171	-575.68536	279.90762	65.156708	-590.5094	333.97256	68.795868	-542.88818	343.15143	28.989616	-589.30627	182.59016	44.746407	-475.33783	245.09045	25.660088	-425.06619	200.61826	40.288673	-445.4317	376.97375	570.6109	-1228.821	343.46799	523.90131	-1260.9244	385.93201	506.91467	-1238.2931	363.51703	269.43362	-1371.9672	369.03662	206.79468	-1385.3387	401.58545	247.79155	-1347.8118	353.00159	68.176735	-1431.9574	283.44559	67.951202	-1400.8615	353.48141	28.529598	-1384.6528	274.18353	26.254017	-1558.2611	213.9576	37.522869	-1526.4801	236.5407	34.474445	-1547.9241	383.17545	1012.4246	-764.85046	334.48639	1023.7678	-762.51337	347.85431	1084.1437	-765.74835	279.77667	701.50684	-715.91107	205.72969	715.42859	-1263.5096	188.19873	634.4007	-1200.7563	204.10982	709.55786	-1200.5997	308.7178	1107.8551	-1221.1541	298.78613	1047.678	-1234.6288	357.02267	1099.6294	-1219.7227
1173	5.855	189.19682	1501.7659	-995.43109	207.17075	1486.1455	-935.05609	234.2326	1474.8225	-1065.4712	220.13095	633.22607	-2089.7844	251.64563	624.35785	130.33885	446.40289	852.25549	-1032.3673	448.56131	853.06165	-959.88788	444.47263	866.48889	-994.85791	398.25864	1300.11	-991.03845	257.70505	1225.8844	-989.73944	443.31821	1031.3684	-999.57837	273.82578	1235.9814	-1158.1404	311.12805	1231.4315	-814.57971	366.80392	575.27771	-748.98541	370.06976	508.94809	-740.95221	329.95026	527.9765	-715.56207	335.04541	239.07173	-590.07007	375.21173	219.24037	-613.07642	343.02679	175.52129	-575.90521	279.76691	65.065125	-590.59552	333.85492	68.791267	-543.03308	343.08188	28.989243	-589.35828	182.55582	44.724514	-475.32959	245.08307	25.667837	-425.05612	200.55937	40.26215	-445.43951	376.46548	570.53595	-1228.7603	342.96259	523.8432	-1260.9174	385.37637	506.42627	-1238.0997	363.104	269.35806	-1371.9019	368.60919	206.96515	-1385.3223	401.11334	247.82443	-1347.7222	352.83575	68.190025	-1431.8119	283.22961	67.856712	-1400.7593	353.4101	28.518364	-1384.6262	274.14764	26.26779	-1558.2511	213.67105	37.372311	-1526.2935	236.47171	34.435677	-1547.9412	384.0726	1011.9394	-764.99005	335.40109	1023.4176	-762.5144	348.82928	1083.7164	-765.74951	280.17932	701.17438	-716.13837	205.4836	715.50684	-1263.6562	187.6552	634.4364	-1201.0292	203.83301	709.62354	-1200.7534	309.46698	1107.5641	-1221.0289	299.36026	1047.4719	-1234.418	357.79459	1099.0781	-1219.6024
1174	5.86	190.43889	1501.7385	-995.83997	208.48936	1485.9716	-935.38824	235.71008	1474.3787	-1065.9275	220.59497	633.50049	-2090.3555	251.13196	623.98834	130.07117	446.24741	851.79712	-1032.5339	448.51755	852.40112	-960.08337	444.43964	865.97192	-995.02185	399.75851	1299.9305	-990.98126	258.98914	1225.9501	-989.69067	443.9364	1030.7719	-999.59882	274.99472	1235.8998	-1158.069	312.33405	1231.1483	-814.58014	366.26495	574.59766	-749.04187	369.61343	508.94528	-741.27411	329.5809	528.07788	-715.61676	334.86478	239.15608	-590.19299	374.9368	219.26869	-613.30762	342.82544	175.49968	-576.06689	279.73233	65.557571	-591.24463	333.73904	68.859116	-543.15802	343.05997	28.979332	-589.39923	182.43814	44.996124	-475.13263	245.06773	25.685883	-425.04166	200.41211	40.424004	-445.26535	375.91882	570.51593	-1228.6906	342.47577	523.80402	-1260.933	384.78693	506.45496	-1237.9803	362.36725	268.86838	-1371.4786	368.28564	206.95602	-1385.1882	400.71295	247.83984	-1347.6475	352.6301	67.986488	-1431.8203	283.10669	67.683044	-1400.6423	353.35498	28.493126	-1384.5952	274.12222	26.218672	-1558.2584	213.83514	37.477371	-1526.4933	236.39107	34.463638	-1547.9628	384.75195	1011.4633	-765.06415	336.10297	1023.039	-762.54242	349.6554	1083.3373	-765.76233	280.26019	700.86139	-716.33759	205.09236	715.4848	-1263.8657	187.20302	634.54126	-1201.2473	203.50493	709.6496	-1200.9219	309.93817	1107.1818	-1221.2225	299.89426	1047.1799	-1234.2623	358.61786	1098.8413	-1219.7218
